<svg id="svg" version="1.1" xmlns="http://www.w3.org/2000/svg" xmlns:xlink="http://www.w3.org/1999/xlink" width="400" height="400" viewBox="0, 0, 400,400"><g id="svgg"><path id="path0" d="M-0.000 92.267 C -0.000 143.013,0.084 184.449,0.187 184.346 C 0.290 184.244,0.567 182.009,0.802 179.380 C 1.038 176.751,1.425 173.610,1.663 172.400 C 1.901 171.190,2.254 169.255,2.448 168.100 C 3.762 160.264,4.526 156.594,6.298 149.600 C 8.044 142.712,8.176 142.244,9.125 139.600 C 9.559 138.390,10.213 136.410,10.579 135.200 C 12.966 127.309,18.685 114.092,23.214 106.000 C 23.891 104.790,24.973 102.810,25.619 101.600 C 26.265 100.390,27.200 98.740,27.697 97.934 C 29.661 94.746,32.588 90.179,32.910 89.800 C 33.096 89.580,33.553 88.925,33.925 88.345 C 35.724 85.535,40.058 79.544,42.275 76.800 C 48.506 69.091,52.147 65.004,57.975 59.178 C 63.576 53.579,68.430 49.122,72.600 45.748 C 73.920 44.680,75.270 43.589,75.600 43.322 C 80.371 39.466,84.805 36.198,88.347 33.925 C 88.926 33.553,89.580 33.102,89.800 32.922 C 90.408 32.425,98.768 27.200,98.955 27.200 C 99.045 27.200,100.262 26.510,101.659 25.667 C 104.385 24.023,115.833 18.272,118.800 17.057 C 119.790 16.651,121.714 15.798,123.075 15.160 C 124.436 14.522,125.743 14.000,125.980 14.000 C 126.217 14.000,126.723 13.841,127.105 13.647 C 130.626 11.856,142.830 7.870,150.600 5.973 C 159.951 3.690,165.541 2.665,175.400 1.426 C 178.260 1.066,181.680 0.624,183.000 0.442 C 184.320 0.260,143.685 0.086,92.700 0.056 L 0.000 0.000 -0.000 92.267 M217.400 0.442 C 218.720 0.624,222.140 1.065,225.000 1.423 C 230.277 2.084,232.603 2.447,236.200 3.171 C 237.300 3.393,239.100 3.739,240.200 3.940 C 241.300 4.141,243.190 4.525,244.400 4.793 C 245.610 5.061,247.230 5.419,248.000 5.588 C 249.215 5.855,253.052 6.889,257.000 8.013 C 257.660 8.201,260.180 9.006,262.600 9.801 C 266.619 11.122,268.375 11.755,271.200 12.901 C 272.469 13.416,273.399 13.776,275.400 14.524 C 280.456 16.416,293.276 22.753,300.929 27.142 C 307.215 30.747,317.837 37.913,322.395 41.622 C 337.554 53.961,346.453 62.821,357.726 76.800 C 359.977 79.592,364.279 85.539,366.075 88.345 C 366.447 88.925,366.897 89.580,367.076 89.800 C 367.523 90.350,371.656 96.951,373.086 99.400 C 375.870 104.168,380.531 113.171,382.404 117.400 C 382.891 118.500,383.688 120.300,384.174 121.400 C 384.660 122.500,385.288 124.030,385.570 124.800 C 385.851 125.570,386.267 126.650,386.494 127.200 C 386.721 127.750,387.041 128.560,387.204 129.000 C 387.367 129.440,387.723 130.340,387.995 131.000 C 388.521 132.273,391.427 140.976,392.003 143.000 C 393.609 148.643,395.697 157.110,396.195 160.000 C 396.327 160.770,396.602 162.300,396.804 163.400 C 397.006 164.500,397.336 166.507,397.537 167.860 C 397.739 169.213,398.013 170.498,398.148 170.716 C 398.283 170.934,398.673 174.051,399.016 177.642 C 399.359 181.234,399.721 184.254,399.820 184.353 C 399.919 184.452,400.000 143.013,400.000 92.267 L 400.000 0.000 307.500 0.056 C 256.625 0.086,216.080 0.260,217.400 0.442 M200.300 135.082 C 200.795 135.178,201.605 135.178,202.100 135.082 C 202.595 134.987,202.190 134.909,201.200 134.909 C 200.210 134.909,199.805 134.987,200.300 135.082 M208.800 142.200 C 208.800 143.263,208.873 144.058,208.963 143.967 C 209.272 143.650,209.375 140.842,209.088 140.555 C 208.930 140.396,208.800 141.137,208.800 142.200 M194.109 143.600 C 194.109 144.590,194.187 144.995,194.282 144.500 C 194.378 144.005,194.378 143.195,194.282 142.700 C 194.187 142.205,194.109 142.610,194.109 143.600 M208.200 144.800 C 207.496 145.102,207.535 145.147,208.524 145.172 C 209.176 145.188,209.544 145.032,209.400 144.800 C 209.264 144.580,209.118 144.413,209.076 144.428 C 209.034 144.444,208.640 144.611,208.200 144.800 M213.983 178.590 C 205.635 179.997,203.626 183.757,203.608 198.000 C 203.590 212.976,206.943 217.200,218.847 217.200 C 225.969 217.200,230.775 215.331,232.447 211.911 C 232.800 211.190,233.338 210.078,233.644 209.439 C 234.371 207.922,234.455 187.855,233.741 186.361 C 233.488 185.832,233.005 184.770,232.667 184.000 C 230.549 179.174,223.181 177.040,213.983 178.590 M254.709 178.808 C 245.537 179.914,240.494 185.229,239.151 195.207 C 237.415 208.106,246.964 218.291,259.630 217.050 C 264.692 216.554,266.206 216.317,266.580 215.961 C 266.789 215.763,267.224 215.600,267.546 215.600 C 267.868 215.600,268.822 215.295,269.666 214.923 L 271.200 214.246 271.200 204.314 L 271.200 194.382 263.700 194.491 L 256.200 194.600 256.200 198.000 L 256.200 201.400 259.600 201.600 L 263.000 201.800 263.114 205.450 C 263.246 209.657,263.472 209.433,259.000 209.540 C 251.548 209.718,246.730 204.704,247.309 197.375 C 248.017 188.421,253.420 184.661,263.400 186.177 C 265.600 186.511,267.760 186.833,268.200 186.892 C 269.037 187.005,269.582 182.777,269.020 180.537 C 268.653 179.074,260.586 178.099,254.709 178.808 M167.600 197.600 L 167.600 216.400 171.400 216.400 L 175.200 216.400 175.200 206.800 C 175.200 199.181,175.307 197.200,175.721 197.200 C 176.007 197.200,180.642 201.513,186.021 206.785 C 193.922 214.529,196.011 216.373,196.900 216.385 L 198.000 216.400 198.000 197.800 L 198.000 179.200 195.400 179.160 C 193.970 179.138,192.350 179.120,191.800 179.120 C 191.250 179.120,190.620 179.138,190.400 179.160 C 190.145 179.185,190.000 182.827,190.000 189.200 C 190.000 194.700,189.864 199.200,189.697 199.200 C 189.530 199.200,184.807 194.610,179.200 189.000 C 173.593 183.390,168.690 178.800,168.303 178.800 C 167.642 178.800,167.600 179.932,167.600 197.600 M309.378 179.747 C 309.200 180.454,309.347 185.111,309.572 185.900 C 309.587 185.955,313.020 186.000,317.200 186.000 C 326.277 186.000,326.051 185.723,321.200 190.891 L 317.600 194.727 317.600 197.364 L 317.600 200.000 320.500 200.002 C 327.392 200.008,330.986 203.514,327.996 207.315 C 326.125 209.692,318.495 210.321,311.988 208.633 C 309.348 207.948,309.670 207.530,309.568 211.776 L 309.483 215.340 311.241 215.811 C 325.727 219.691,337.200 215.020,337.200 205.245 C 337.200 200.215,333.218 194.800,329.520 194.800 C 327.479 194.800,330.079 190.615,334.966 186.030 C 336.246 184.830,336.552 179.497,335.367 179.043 C 335.019 178.909,329.083 178.800,322.175 178.800 L 309.615 178.800 309.378 179.747 "></svg>